<svg width="43" height="43" viewBox="0 0 43 43" fill="none" xmlns="http://www.w3.org/2000/svg">
<g id="uil:facebook">
<path id="Vector" d="M37.4109 4.25781H6.26094C5.7504 4.25781 5.26076 4.46062 4.89976 4.82163C4.53875 5.18264 4.33594 5.67227 4.33594 6.18281V37.3328C4.33594 37.8434 4.53875 38.333 4.89976 38.694C5.26076 39.055 5.7504 39.2578 6.26094 39.2578H23.0259V25.6953H18.4759V20.4453H23.0259V16.5078C22.9317 15.5834 23.0408 14.6495 23.3457 13.7718C23.6506 12.894 24.1438 12.0935 24.7908 11.4265C25.4377 10.7595 26.2228 10.2422 27.0909 9.91073C27.959 9.57927 28.8891 9.44175 29.8159 9.50781C31.178 9.49943 32.5394 9.56955 33.8934 9.71781V14.4428H31.1109C28.9059 14.4428 28.4859 15.4928 28.4859 17.0153V20.3928H33.7359L33.0534 25.6428H28.4859V39.2578H37.4109C37.6637 39.2578 37.9141 39.208 38.1476 39.1113C38.3812 39.0145 38.5934 38.8727 38.7721 38.694C38.9509 38.5152 39.0927 38.303 39.1894 38.0695C39.2861 37.8359 39.3359 37.5856 39.3359 37.3328V6.18281C39.3359 5.93002 39.2861 5.6797 39.1894 5.44615C39.0927 5.2126 38.9509 5.00038 38.7721 4.82163C38.5934 4.64288 38.3812 4.50108 38.1476 4.40434C37.9141 4.3076 37.6637 4.25781 37.4109 4.25781Z" fill="white"/>
</g>
</svg>
