<svg width="43" height="43" viewBox="0 0 43 43" fill="none" xmlns="http://www.w3.org/2000/svg">
<g id="mdi:youtube">
<path id="Vector" d="M18.3359 27.0078L27.4184 21.7578L18.3359 16.5078V27.0078ZM38.5659 13.3053C38.7934 14.1278 38.9509 15.2303 39.0559 16.6303C39.1784 18.0303 39.2309 19.2378 39.2309 20.2878L39.3359 21.7578C39.3359 25.5903 39.0559 28.4078 38.5659 30.2103C38.1284 31.7853 37.1134 32.8003 35.5384 33.2378C34.7159 33.4653 33.2109 33.6228 30.9009 33.7278C28.6259 33.8503 26.5434 33.9028 24.6184 33.9028L21.8359 34.0078C14.5034 34.0078 9.93594 33.7278 8.13344 33.2378C6.55844 32.8003 5.54344 31.7853 5.10594 30.2103C4.87844 29.3878 4.72094 28.2853 4.61594 26.8853C4.49344 25.4853 4.44094 24.2778 4.44094 23.2278L4.33594 21.7578C4.33594 17.9253 4.61594 15.1078 5.10594 13.3053C5.54344 11.7303 6.55844 10.7153 8.13344 10.2778C8.95594 10.0503 10.4609 9.89281 12.7709 9.78781C15.0459 9.66531 17.1284 9.61281 19.0534 9.61281L21.8359 9.50781C29.1684 9.50781 33.7359 9.78781 35.5384 10.2778C37.1134 10.7153 38.1284 11.7303 38.5659 13.3053Z" fill="white"/>
</g>
</svg>
