<svg width="43" height="43" viewBox="0 0 43 43" fill="none" xmlns="http://www.w3.org/2000/svg">
<g id="ri:instagram-fill">
<path id="Vector" d="M23.6359 4.25948C24.913 4.25458 26.19 4.26741 27.4667 4.29798L27.8062 4.31023C28.1982 4.32423 28.5849 4.34173 29.0522 4.36273C30.9142 4.45023 32.1847 4.74423 33.2994 5.17648C34.4544 5.62098 35.4275 6.22298 36.4005 7.19598C37.2901 8.07029 37.9786 9.12788 38.4182 10.2952C38.8504 11.41 39.1445 12.6822 39.2319 14.5442C39.2529 15.0097 39.2704 15.3982 39.2844 15.7902L39.2949 16.1297C39.326 17.4058 39.3395 18.6823 39.3352 19.9587L39.3369 21.2642V23.5567C39.3413 24.8338 39.3278 26.1108 39.2967 27.3875L39.2862 27.727C39.2722 28.119 39.2547 28.5057 39.2337 28.973C39.1462 30.835 38.8487 32.1055 38.4182 33.2202C37.9801 34.3888 37.2914 35.4473 36.4005 36.3212C35.5254 37.2108 34.4672 37.8993 33.2994 38.339C32.1847 38.7712 30.9142 39.0652 29.0522 39.1527C28.5849 39.1737 28.1982 39.1912 27.8062 39.2052L27.4667 39.2157C26.19 39.2468 24.913 39.2603 23.6359 39.256L22.3304 39.2577H20.0397C18.7627 39.262 17.4856 39.2486 16.2089 39.2175L15.8694 39.207C15.454 39.1919 15.0387 39.1744 14.6234 39.1545C12.7614 39.067 11.4909 38.7695 10.3744 38.339C9.20664 37.9003 8.14886 37.2117 7.2752 36.3212C6.38453 35.4467 5.69534 34.3885 5.2557 33.2202C4.82345 32.1055 4.52945 30.835 4.44195 28.973C4.42246 28.5577 4.40496 28.1424 4.38945 27.727L4.3807 27.3875C4.34843 26.1108 4.33385 24.8338 4.33695 23.5567V19.9587C4.33206 18.6823 4.3449 17.4058 4.37545 16.1297L4.3877 15.7902C4.4017 15.3982 4.4192 15.0097 4.4402 14.5442C4.5277 12.6805 4.8217 11.4117 5.25395 10.2952C5.69385 9.12731 6.38438 8.07001 7.27695 7.19773C8.15001 6.30654 9.20713 5.61673 10.3744 5.17648C11.4909 4.74423 12.7597 4.45023 14.6234 4.36273L15.8694 4.31023L16.2089 4.30148C17.485 4.26923 18.7615 4.25465 20.0379 4.25773L23.6359 4.25948ZM21.8369 13.0095C20.6776 12.9931 19.5265 13.2073 18.4507 13.6396C17.3748 14.0719 16.3956 14.7138 15.5699 15.5278C14.7443 16.3419 14.0886 17.3119 13.6411 18.3816C13.1937 19.4512 12.9632 20.5991 12.9632 21.7586C12.9632 22.9181 13.1937 24.066 13.6411 25.1356C14.0886 26.2053 14.7443 27.1753 15.5699 27.9894C16.3956 28.8034 17.3748 29.4453 18.4507 29.8776C19.5265 30.3099 20.6776 30.5241 21.8369 30.5077C24.1576 30.5077 26.3832 29.5859 28.0241 27.9449C29.6651 26.304 30.5869 24.0784 30.5869 21.7577C30.5869 19.4371 29.6651 17.2115 28.0241 15.5705C26.3832 13.9296 24.1576 13.0095 21.8369 13.0095ZM21.8369 16.5095C22.5343 16.4966 23.2273 16.6229 23.8753 16.8808C24.5234 17.1388 25.1135 17.5233 25.6113 18.0119C26.1091 18.5005 26.5045 19.0834 26.7745 19.7266C27.0444 20.3697 27.1835 21.0602 27.1837 21.7577C27.1838 22.4552 27.0449 23.1458 26.7752 23.789C26.5054 24.4322 26.1102 25.0152 25.6126 25.504C25.1149 25.9928 24.5249 26.3775 23.877 26.6357C23.229 26.8939 22.5361 27.0203 21.8387 27.0077C20.4463 27.0077 19.111 26.4546 18.1264 25.47C17.1418 24.4855 16.5887 23.1501 16.5887 21.7577C16.5887 20.3653 17.1418 19.03 18.1264 18.0454C19.111 17.0608 20.4463 16.5077 21.8387 16.5077L21.8369 16.5095ZM31.0244 10.3845C30.4599 10.4071 29.926 10.6472 29.5345 11.0547C29.1431 11.4621 28.9244 12.0052 28.9244 12.5702C28.9244 13.1352 29.1431 13.6783 29.5345 14.0858C29.926 14.4932 30.4599 14.7334 31.0244 14.756C31.6046 14.756 32.161 14.5255 32.5712 14.1153C32.9815 13.705 33.2119 13.1486 33.2119 12.5685C33.2119 11.9883 32.9815 11.4319 32.5712 11.0217C32.161 10.6114 31.6046 10.381 31.0244 10.381V10.3845Z" fill="white"/>
</g>
</svg>
